<?xml version="1.0" encoding="UTF-8"?>
<svg version="1.1" xmlns="http://www.w3.org/2000/svg" width="512" height="512">
<path d="M0 0 C1.01790619 0.00215515 2.03581238 0.0043103 3.08456421 0.00653076 C17.69363523 0.05620146 32.02575853 0.30709809 46.375 3.3125 C47.34985352 3.51117676 48.32470703 3.70985352 49.32910156 3.91455078 C97.7109774 14.03517194 141.69928269 35.9516877 177.375 70.3125 C178.3640332 71.26068604 178.3640332 71.26068604 179.37304688 72.22802734 C188.86130305 81.37247479 197.6012044 90.66984009 205.375 101.3125 C206.23306152 102.46355017 207.09113451 103.61459177 207.94921875 104.765625 C213.98736829 112.95680614 219.34595521 121.47054105 224.375 130.3125 C224.73948242 130.94430176 225.10396484 131.57610352 225.47949219 132.22705078 C247.08534998 169.97532572 256.85198095 212.74189997 256.6875 255.9375 C256.68534485 256.95540619 256.6831897 257.97331238 256.68096924 259.02206421 C256.63129854 273.63113523 256.38040191 287.96325853 253.375 302.3125 C253.07698486 303.77478027 253.07698486 303.77478027 252.77294922 305.26660156 C242.65232806 353.6484774 220.7358123 397.63678269 186.375 433.3125 C185.74287598 433.97185547 185.11075195 434.63121094 184.45947266 435.31054688 C175.31502521 444.79880305 166.01765991 453.5387044 155.375 461.3125 C154.22394983 462.17056152 153.07290823 463.02863451 151.921875 463.88671875 C143.73224019 469.92427396 135.22961724 475.30707302 126.375 480.3125 C125.66778809 480.7146875 124.96057617 481.116875 124.23193359 481.53125 C101.09654164 494.5566741 75.92537591 503.30551461 49.9375 508.625 C49.21860596 508.77235596 48.49971191 508.91971191 47.7590332 509.0715332 C33.08339502 511.86090125 18.55831162 512.66142619 3.64770508 512.62817383 C0.70811513 512.6250221 -2.2304558 512.64854926 -5.16992188 512.67382812 C-18.54306192 512.71848737 -31.43916711 511.51301542 -44.625 509.3125 C-46.33055054 509.03031616 -46.33055054 509.03031616 -48.07055664 508.74243164 C-91.33802759 500.97044532 -132.38793216 480.98345309 -165.625 452.3125 C-166.37007813 451.67828125 -167.11515625 451.0440625 -167.8828125 450.390625 C-181.38779833 438.57948485 -194.05918743 425.82889772 -204.625 411.3125 C-205.48149066 410.16255169 -206.33826433 409.01281411 -207.1953125 407.86328125 C-213.23534209 399.67315742 -218.61867614 391.16870382 -223.625 382.3125 C-224.0271875 381.60528809 -224.429375 380.89807617 -224.84375 380.16943359 C-237.8691741 357.03404164 -246.61801461 331.86287591 -251.9375 305.875 C-252.08485596 305.15610596 -252.23221191 304.43721191 -252.3840332 303.6965332 C-255.35789088 288.05024391 -255.99800362 272.57681954 -255.9375 256.6875 C-255.93534485 255.66959381 -255.9331897 254.65168762 -255.93096924 253.60293579 C-255.88129854 238.99386477 -255.63040191 224.66174147 -252.625 210.3125 C-252.42632324 209.33764648 -252.22764648 208.36279297 -252.02294922 207.35839844 C-241.90232806 158.9765226 -219.9858123 114.98821731 -185.625 79.3125 C-184.99287598 78.65314453 -184.36075195 77.99378906 -183.70947266 77.31445312 C-174.56502521 67.82619695 -165.26765991 59.0862956 -154.625 51.3125 C-153.47394983 50.45443848 -152.32290823 49.59636549 -151.171875 48.73828125 C-142.98224019 42.70072604 -134.47961724 37.31792698 -125.625 32.3125 C-124.91778809 31.9103125 -124.21057617 31.508125 -123.48193359 31.09375 C-100.34654164 18.0683259 -75.17537591 9.31948539 -49.1875 4 C-48.46860596 3.85264404 -47.74971191 3.70528809 -47.0090332 3.5534668 C-31.36274391 0.57960912 -15.88931954 -0.06050362 0 0 Z " fill="#8A62F0" transform="translate(255.625,-0.3125)"/>
<path d="M0 0 C0.90209595 -0.00467997 1.80419191 -0.00935994 2.7336241 -0.01418173 C5.74514418 -0.02611199 8.75620755 -0.01668204 11.76773071 -0.00723267 C13.93147547 -0.01129929 16.09521815 -0.01664168 18.25895691 -0.02316284 C24.12884604 -0.03683296 29.99857688 -0.03153852 35.86846876 -0.02202559 C42.01552727 -0.01442553 48.1625723 -0.02147575 54.30963135 -0.02618408 C64.63439362 -0.03164143 74.9590915 -0.02445137 85.28384399 -0.01016235 C97.21207736 0.00615543 109.14015682 0.00088184 121.06838644 -0.01564157 C131.31573056 -0.02926729 141.56302841 -0.03117051 151.81037867 -0.02332556 C157.92789584 -0.01865393 164.04534074 -0.01801007 170.16285324 -0.02793503 C175.91668567 -0.03661784 181.67032027 -0.03055855 187.42413139 -0.01325226 C189.5328037 -0.0092941 191.64149272 -0.01040994 193.75015831 -0.01704025 C196.63484984 -0.02527249 199.51891267 -0.01491367 202.40356445 0 C203.6469282 -0.01003825 203.6469282 -0.01003825 204.9154104 -0.02027929 C213.64309574 0.06687404 220.77843969 2.34495652 227.09829712 8.46298218 C234.31294397 16.45935148 233.24675962 25.1633258 232.82876587 35.38095093 C233.86775024 35.32294312 234.90673462 35.2649353 235.97720337 35.20516968 C245.60473324 34.82723423 253.19584607 35.21644024 260.66079712 42.06063843 C267.00502823 49.00687687 268.27293643 55.20252819 268.2328186 64.38412476 C268.24311348 66.03161461 268.24311348 66.03161461 268.25361633 67.71238708 C268.27189446 71.33771755 268.26804454 74.96261558 268.26235962 78.58798218 C268.26692153 81.1137557 268.27222713 83.63952798 268.27824402 86.16529846 C268.28717762 91.45867538 268.28498435 96.75189541 268.27481079 102.04525757 C268.26334371 108.14608968 268.27738476 114.24648146 268.30420727 120.34725553 C268.32911734 126.23552576 268.33152794 132.12362589 268.32509041 138.0119381 C268.32493734 140.50811177 268.33096986 143.00429397 268.34338188 145.50043678 C268.35831713 148.99715174 268.34759412 152.49290782 268.33047485 155.98959351 C268.34014282 157.01379395 268.34981079 158.03799438 268.35977173 159.0932312 C268.27927044 166.97555647 266.5935402 173.10687606 261.45376587 179.19345093 C254.20676788 185.23261592 249.59617963 186.53915244 240.34439087 186.47860718 C239.528797 186.47719223 238.71320313 186.47577728 237.87289429 186.47431946 C235.27481375 186.46873396 232.67682024 186.45618413 230.07876587 186.44345093 C228.3144442 186.43843405 226.55012118 186.43387147 224.78579712 186.42977905 C220.46675331 186.41876928 216.14777433 186.40151462 211.82876587 186.38095093 C212.32158879 201.09950761 214.15075268 212.84645421 219.93814087 226.53329468 C220.8411526 229.42055587 220.9210438 230.61695494 219.82876587 233.38095093 C213.55006326 235.58502205 207.3298768 231.511968 201.64126587 228.93954468 C186.82935457 221.5513918 174.9186614 209.66808078 168.09829712 194.55282593 C167.78106689 193.86108276 167.46383667 193.1693396 167.13699341 192.45663452 C166.36288883 190.76688315 165.595165 189.07421109 164.82876587 187.38095093 C163.75257838 187.38151647 163.75257838 187.38151647 162.65464973 187.38209343 C145.1677883 187.38922186 127.6812874 187.3632111 110.19453621 187.30067253 C101.73791195 187.27122135 93.28153823 187.25283649 84.82485962 187.26083374 C77.45084449 187.26777871 70.07721739 187.25362338 62.7032975 187.21451485 C58.80157038 187.19454821 54.9004519 187.18488733 50.99869156 187.20052719 C47.31950761 187.21494064 43.64148185 187.20095531 39.96244621 187.16599846 C37.9819848 187.15433935 36.00141717 187.172062 34.02101135 187.19093323 C25.8210989 187.07708999 20.30000755 185.52732087 13.82876587 180.38095093 C11.57485962 177.96688843 11.57485962 177.96688843 10.26626587 175.75595093 C9.81122681 175.0211853 9.35618774 174.28641968 8.88735962 173.52938843 C6.57675471 168.83996886 6.7072411 164.27064639 6.76626587 159.13095093 C6.77077759 158.3858728 6.77528931 157.64079468 6.77993774 156.87313843 C6.79167341 155.04237453 6.80960737 153.2116522 6.82876587 151.38095093 C5.05372681 151.48536499 5.05372681 151.48536499 3.24282837 151.59188843 C-12.31269468 152.23530422 -12.31269468 152.23530422 -19.25326538 147.15829468 C-24.37634412 142.41083882 -27.77088991 137.18589958 -28.3663311 130.03938866 C-28.45259679 127.15074212 -28.47576619 124.26772745 -28.47763062 121.3777771 C-28.48595413 120.27945053 -28.49427765 119.18112396 -28.50285339 118.04951477 C-28.5269179 114.42428018 -28.53572119 110.79922564 -28.54232788 107.17391968 C-28.55129669 104.64814704 -28.56041858 102.12237495 -28.56968689 99.59660339 C-28.58616967 94.30326718 -28.5939086 89.00999817 -28.59677124 83.71664429 C-28.60040399 77.61575907 -28.63028824 71.51537767 -28.67217582 65.41464633 C-28.71117386 59.52639186 -28.72236618 53.63833577 -28.72349739 47.74996376 C-28.72769613 45.25376974 -28.74011634 42.75757514 -28.76101494 40.26146507 C-28.7879624 36.76463698 -28.7830925 33.26918833 -28.77059937 29.77230835 C-28.78543365 28.74810791 -28.80026794 27.72390747 -28.81555176 26.66867065 C-28.73755236 18.97617605 -26.76823988 13.17972175 -21.4157629 7.52701092 C-14.97907645 1.48168069 -8.57237784 -0.06883824 0 0 Z " fill="#8F5FF0" transform="translate(136.17123413085938,138.61904907226563)"/>
<path d="M0 0 C2.17551875 -0.00485965 4.35103303 -0.012302 6.52653503 -0.02212524 C12.41915303 -0.0408977 18.31110399 -0.022132 24.20366979 0.00453901 C30.37653881 0.02721272 36.54937607 0.01894962 42.72227478 0.01504517 C53.08644476 0.01328075 63.45035273 0.03541016 73.81445312 0.07226562 C85.79058325 0.11461018 97.7661235 0.12161751 109.74232584 0.10914171 C121.27271585 0.09774609 132.80297103 0.10905478 144.3333416 0.1314888 C149.23627661 0.14076863 154.13912899 0.14253377 159.04207039 0.13831711 C164.81653199 0.13454529 170.59060409 0.15080502 176.36497688 0.1824379 C178.48212065 0.19091067 180.59930399 0.19263335 182.71645737 0.1870575 C185.6103519 0.1805931 188.50309017 0.19882625 191.39686584 0.22323608 C192.23121456 0.21567744 193.06556327 0.20811879 193.92519528 0.20033109 C199.62165335 0.28511657 203.95623515 1.56982131 208.72631836 4.74462891 C211.10131836 7.24462891 211.10131836 7.24462891 212.72631836 9.74462891 C213.08725586 10.29634766 213.44819336 10.84806641 213.82006836 11.41650391 C215.11643761 14.74683182 214.93770231 17.97946662 214.85131836 21.49462891 C214.84229492 22.19201172 214.83327148 22.88939453 214.82397461 23.60791016 C214.80051724 25.32029848 214.7646494 27.03250895 214.72631836 28.74462891 C213.6996361 28.74517367 212.67295383 28.74571844 211.61515999 28.74627972 C186.61768283 28.76068402 161.62037962 28.80373756 136.62300301 28.87671947 C124.53437412 28.91135203 112.44585905 28.93672274 100.35717773 28.94018555 C89.81896721 28.94322783 79.2809595 28.9637541 68.7428273 29.00515348 C63.16446896 29.02646089 57.58639879 29.03909555 52.00799942 29.0307827 C46.75313137 29.02322848 41.49884657 29.03912161 36.24408531 29.07268906 C34.31968466 29.08090572 32.39522583 29.08069194 30.47083092 29.07122612 C14.92082467 28.86700117 14.92082467 28.86700117 1.81064034 36.55845928 C-3.71804992 42.44255968 -4.57247571 47.93835078 -4.5925293 55.75756836 C-4.60257492 56.65562698 -4.61262054 57.55368561 -4.62297058 58.47895813 C-4.65378836 61.43860247 -4.6708339 64.39815641 -4.68774414 67.35791016 C-4.70645691 69.41343462 -4.7260304 71.46895142 -4.74642944 73.52445984 C-4.79774509 78.92814612 -4.83737395 84.3318573 -4.87457275 89.73565674 C-4.91461587 95.25238198 -4.96570684 100.76900367 -5.01586914 106.28564453 C-5.11262176 117.10523324 -5.19702877 127.92488043 -5.27368164 138.74462891 C-7.81651399 138.85334858 -10.35463252 138.93225292 -12.89868164 138.99462891 C-13.6115332 139.02814453 -14.32438477 139.06166016 -15.05883789 139.09619141 C-20.28671431 139.19211574 -23.08557864 138.12812099 -27.27368164 134.74462891 C-30.74181725 131.37750695 -33.95366393 127.46598588 -34.53095055 122.55687332 C-34.53430223 121.75977322 -34.53765392 120.96267311 -34.54110718 120.14141846 C-34.54963715 119.22192413 -34.55816711 118.30242981 -34.56695557 117.35507202 C-34.56604919 116.35344025 -34.56514282 115.35180847 -34.56420898 114.31982422 C-34.57092621 113.25919769 -34.57764343 112.19857117 -34.58456421 111.10580444 C-34.60358251 107.5947401 -34.60747061 104.08386658 -34.60961914 100.57275391 C-34.61604526 98.13140789 -34.62277348 95.69006265 -34.62979126 93.24871826 C-34.64177424 88.12754532 -34.64547111 83.00643988 -34.64428711 77.88525391 C-34.64408406 71.33035304 -34.67136731 64.77588643 -34.70583153 58.22108841 C-34.72809698 53.17667666 -34.73212472 48.13236937 -34.73106766 43.08791351 C-34.73342487 40.67184709 -34.74225508 38.25577783 -34.75773239 35.83975983 C-34.77738074 32.45520379 -34.77155759 29.0715836 -34.75952148 25.68701172 C-34.7707605 24.69347687 -34.78199951 23.69994202 -34.7935791 22.67630005 C-34.72793938 15.39344248 -33.48000143 10.53860018 -28.75395107 4.94636345 C-21.01667093 -1.7916539 -9.58652191 -0.07481751 0 0 Z " fill="#AD46F4" transform="translate(148.273681640625,145.25537109375)"/>
<path d="M0 0 C0.90209595 -0.00467997 1.80419191 -0.00935994 2.7336241 -0.01418173 C5.74514418 -0.02611199 8.75620755 -0.01668204 11.76773071 -0.00723267 C13.93147547 -0.01129929 16.09521815 -0.01664168 18.25895691 -0.02316284 C24.12884604 -0.03683296 29.99857688 -0.03153852 35.86846876 -0.02202559 C42.01552727 -0.01442553 48.1625723 -0.02147575 54.30963135 -0.02618408 C64.63439362 -0.03164143 74.9590915 -0.02445137 85.28384399 -0.01016235 C97.21207736 0.00615543 109.14015682 0.00088184 121.06838644 -0.01564157 C131.31573056 -0.02926729 141.56302841 -0.03117051 151.81037867 -0.02332556 C157.92789584 -0.01865393 164.04534074 -0.01801007 170.16285324 -0.02793503 C175.91668567 -0.03661784 181.67032027 -0.03055855 187.42413139 -0.01325226 C189.5328037 -0.0092941 191.64149272 -0.01040994 193.75015831 -0.01704025 C196.63484984 -0.02527249 199.51891267 -0.01491367 202.40356445 0 C203.6469282 -0.01003825 203.6469282 -0.01003825 204.9154104 -0.02027929 C213.64309574 0.06687404 220.77843969 2.34495652 227.09829712 8.46298218 C234.31294397 16.45935148 233.24675962 25.1633258 232.82876587 35.38095093 C233.86775024 35.32294312 234.90673462 35.2649353 235.97720337 35.20516968 C245.60473324 34.82723423 253.19584607 35.21644024 260.66079712 42.06063843 C267.00502823 49.00687687 268.27293643 55.20252819 268.2328186 64.38412476 C268.24311348 66.03161461 268.24311348 66.03161461 268.25361633 67.71238708 C268.27189446 71.33771755 268.26804454 74.96261558 268.26235962 78.58798218 C268.26692153 81.1137557 268.27222713 83.63952798 268.27824402 86.16529846 C268.28717762 91.45867538 268.28498435 96.75189541 268.27481079 102.04525757 C268.26334371 108.14608968 268.27738476 114.24648146 268.30420727 120.34725553 C268.32911734 126.23552576 268.33152794 132.12362589 268.32509041 138.0119381 C268.32493734 140.50811177 268.33096986 143.00429397 268.34338188 145.50043678 C268.35831713 148.99715174 268.34759412 152.49290782 268.33047485 155.98959351 C268.34014282 157.01379395 268.34981079 158.03799438 268.35977173 159.0932312 C268.27927044 166.97555647 266.5935402 173.10687606 261.45376587 179.19345093 C254.20676788 185.23261592 249.59617963 186.53915244 240.34439087 186.47860718 C239.528797 186.47719223 238.71320313 186.47577728 237.87289429 186.47431946 C235.27481375 186.46873396 232.67682024 186.45618413 230.07876587 186.44345093 C228.3144442 186.43843405 226.55012118 186.43387147 224.78579712 186.42977905 C220.46675331 186.41876928 216.14777433 186.40151462 211.82876587 186.38095093 C212.32158879 201.09950761 214.15075268 212.84645421 219.93814087 226.53329468 C220.8411526 229.42055587 220.9210438 230.61695494 219.82876587 233.38095093 C213.55006326 235.58502205 207.3298768 231.511968 201.64126587 228.93954468 C186.82935457 221.5513918 174.9186614 209.66808078 168.09829712 194.55282593 C167.78106689 193.86108276 167.46383667 193.1693396 167.13699341 192.45663452 C166.36288883 190.76688315 165.595165 189.07421109 164.82876587 187.38095093 C163.75257838 187.38151647 163.75257838 187.38151647 162.65464973 187.38209343 C145.1677883 187.38922186 127.6812874 187.3632111 110.19453621 187.30067253 C101.73791195 187.27122135 93.28153823 187.25283649 84.82485962 187.26083374 C77.45084449 187.26777871 70.07721739 187.25362338 62.7032975 187.21451485 C58.80157038 187.19454821 54.9004519 187.18488733 50.99869156 187.20052719 C47.31950761 187.21494064 43.64148185 187.20095531 39.96244621 187.16599846 C37.9819848 187.15433935 36.00141717 187.172062 34.02101135 187.19093323 C25.8210989 187.07708999 20.30000755 185.52732087 13.82876587 180.38095093 C11.57485962 177.96688843 11.57485962 177.96688843 10.26626587 175.75595093 C9.81122681 175.0211853 9.35618774 174.28641968 8.88735962 173.52938843 C6.57675471 168.83996886 6.7072411 164.27064639 6.76626587 159.13095093 C6.77077759 158.3858728 6.77528931 157.64079468 6.77993774 156.87313843 C6.79167341 155.04237453 6.80960737 153.2116522 6.82876587 151.38095093 C5.05372681 151.48536499 5.05372681 151.48536499 3.24282837 151.59188843 C-12.31269468 152.23530422 -12.31269468 152.23530422 -19.25326538 147.15829468 C-24.37634412 142.41083882 -27.77088991 137.18589958 -28.3663311 130.03938866 C-28.45259679 127.15074212 -28.47576619 124.26772745 -28.47763062 121.3777771 C-28.48595413 120.27945053 -28.49427765 119.18112396 -28.50285339 118.04951477 C-28.5269179 114.42428018 -28.53572119 110.79922564 -28.54232788 107.17391968 C-28.55129669 104.64814704 -28.56041858 102.12237495 -28.56968689 99.59660339 C-28.58616967 94.30326718 -28.5939086 89.00999817 -28.59677124 83.71664429 C-28.60040399 77.61575907 -28.63028824 71.51537767 -28.67217582 65.41464633 C-28.71117386 59.52639186 -28.72236618 53.63833577 -28.72349739 47.74996376 C-28.72769613 45.25376974 -28.74011634 42.75757514 -28.76101494 40.26146507 C-28.7879624 36.76463698 -28.7830925 33.26918833 -28.77059937 29.77230835 C-28.78543365 28.74810791 -28.80026794 27.72390747 -28.81555176 26.66867065 C-28.73755236 18.97617605 -26.76823988 13.17972175 -21.4157629 7.52701092 C-14.97907645 1.48168069 -8.57237784 -0.06883824 0 0 Z M-19.55735111 15.17545414 C-22.79064293 20.55152842 -22.7451199 26.14222237 -22.7046814 32.25985718 C-22.71329697 33.32106781 -22.72191254 34.38227844 -22.73078918 35.47564697 C-22.75339456 38.96516677 -22.74672031 42.45388003 -22.73764038 45.94345093 C-22.74287801 48.3790816 -22.749155 50.81471024 -22.75642395 53.25033569 C-22.76681794 58.34768235 -22.76228024 63.44474965 -22.74765015 68.54208374 C-22.73045669 75.0656287 -22.75397111 81.58829334 -22.78913975 88.11174011 C-22.81112595 93.13902595 -22.8096693 98.1661015 -22.80137444 103.19342041 C-22.80055575 105.59831712 -22.80740329 108.00322939 -22.82214546 110.40808105 C-22.83961464 113.77328245 -22.82502738 117.13690601 -22.80233765 120.50204468 C-22.81402985 121.48929535 -22.82572205 122.47654602 -22.83776855 123.49371338 C-22.73807526 130.78120181 -20.8256598 135.78507627 -15.58702946 140.93977356 C-10.6195476 145.21132273 -7.40028824 145.51478314 -1.04623413 145.44345093 C0.08491821 145.43668335 0.08491821 145.43668335 1.23892212 145.42977905 C3.10223713 145.41798592 4.96551142 145.40005035 6.82876587 145.38095093 C6.8324115 144.24613281 6.83605713 143.1113147 6.83981323 141.94210815 C6.8768049 131.23107621 6.93462339 120.52033066 7.01266861 109.80951691 C7.0521247 104.30336846 7.08432248 98.7973795 7.09976196 93.29110718 C7.11494065 87.97409795 7.14940824 82.65752724 7.19707489 77.3407135 C7.21187609 75.31545327 7.21980616 73.29013043 7.22064972 71.26481628 C7.22302489 68.42089458 7.25014902 65.57817931 7.28286743 62.73446655 C7.27783707 61.90296082 7.2728067 61.07145508 7.2676239 60.2147522 C7.38424982 53.63355541 9.23616427 48.45702135 13.50454712 43.39266968 C14.04466431 42.95567749 14.58478149 42.5186853 15.14126587 42.06845093 C15.67364868 41.61856812 16.20603149 41.1686853 16.75454712 40.70516968 C22.63212376 36.95281849 27.46477186 35.93871436 34.30128479 35.98222351 C35.12805979 35.97557668 35.95483479 35.96892986 36.80666357 35.96208161 C39.56277452 35.94350563 42.31844928 35.94605324 45.07461548 35.94857788 C47.05592459 35.93955743 49.03722811 35.92922951 51.01852417 35.91769409 C56.3877879 35.89013136 61.75694571 35.88084052 67.12627101 35.87484002 C72.74105823 35.86545452 78.35576641 35.83925094 83.97050476 35.81483459 C94.59858774 35.77117085 105.22665538 35.74262307 115.85480076 35.71951121 C127.95635031 35.69245892 140.05782033 35.64854739 152.15931308 35.60322249 C177.04908755 35.51037796 201.93888697 35.43869629 226.82876587 35.38095093 C226.88636265 32.97826169 226.92839441 30.57696797 226.96157837 28.17391968 C226.97938354 27.49776611 226.99718872 26.82161255 227.01553345 26.12496948 C227.06715642 21.13727935 226.35320878 17.84897292 223.32876587 13.89657593 C218.26174084 8.77676939 213.72203328 7.27574604 206.67304933 7.22389704 C205.82413641 7.22271716 204.97522349 7.22153729 204.10058594 7.22032166 C202.74644323 7.21268993 202.74644323 7.21268993 201.3649441 7.20490402 C198.32733286 7.18915591 195.28974545 7.18064822 192.25210571 7.17221069 C190.07910002 7.16267411 187.90609585 7.15278303 185.73309326 7.14256287 C178.58531501 7.11115421 171.43752504 7.09090792 164.28970337 7.07235718 C163.07396527 7.06905986 161.85822717 7.06576253 160.60564852 7.06236529 C149.14146441 7.03158273 137.6772777 7.00487288 126.21306419 6.98794651 C111.54575123 6.96603775 96.87886553 6.92406483 82.21169889 6.85450894 C71.90075707 6.80727092 61.589914 6.78301314 51.27886736 6.77574962 C45.11978005 6.77079298 38.96110506 6.75571 32.80213547 6.71600533 C27.00556464 6.67912994 21.2096415 6.67073272 15.41297531 6.68401146 C13.28815113 6.68395753 11.16329818 6.67366753 9.03858185 6.65225983 C-7.1321036 6.05100492 -7.1321036 6.05100492 -19.55735111 15.17545414 Z M14.36012268 51.57539368 C12.03509349 56.25601795 12.27770758 61.14841177 12.32705688 66.26986694 C12.3216539 67.34389771 12.31625092 68.41792847 12.3106842 69.52450562 C12.29821468 73.06157295 12.31467598 76.59782361 12.33267212 80.13485718 C12.3325171 82.59912661 12.33102768 85.0633963 12.32826233 87.52766418 C12.32687916 92.68647062 12.33942409 97.84499875 12.36221313 103.00375366 C12.39061197 109.61365805 12.38785507 116.22310064 12.37512302 122.83303928 C12.36816612 127.91941772 12.37595512 133.00568954 12.38838005 138.09205437 C12.39289335 140.52929208 12.39323242 142.96654124 12.38931465 145.40377998 C12.38640204 148.80990162 12.40291235 152.21538809 12.42471313 155.62142944 C12.42021149 156.62679245 12.41570984 157.63215546 12.41107178 158.66798401 C12.4833963 165.47428419 13.6131061 169.73446842 18.07876587 175.06845093 C25.36998692 181.19970499 32.47772871 180.82343835 41.65859985 180.81332397 C43.05863811 180.82235015 44.45866847 180.83267946 45.85868835 180.84420776 C49.6432982 180.87170372 53.4277578 180.88105214 57.21245456 180.88706183 C61.17365352 180.89646487 65.1347411 180.92266978 69.09587097 180.94706726 C76.58963437 180.99068299 84.08337608 181.01926016 91.57722765 181.04239064 C100.11175378 181.06946878 108.64616758 181.11337865 117.1806134 181.15867937 C134.72993967 181.25145505 152.27929021 181.32316811 169.82876587 181.38095093 C170.28984741 182.46706665 170.75092896 183.55318237 171.22598267 184.67221069 C171.84720596 186.11821204 172.46872221 187.56408756 173.09048462 189.00985718 C173.39240723 189.72323242 173.69432983 190.43660767 174.00540161 191.17160034 C179.88715643 204.78901412 189.56233834 214.57482575 202.26626587 222.00595093 C202.86970825 222.36132935 203.47315063 222.71670776 204.09487915 223.08285522 C206.00225674 224.17726816 206.00225674 224.17726816 208.82876587 225.38095093 C209.81876587 225.05095093 210.80876587 224.72095093 211.82876587 224.38095093 C211.55161743 223.59591187 211.27446899 222.8108728 210.98892212 222.00204468 C210.62669556 220.95145874 210.26446899 219.9008728 209.89126587 218.81845093 C209.35179321 217.26964233 209.35179321 217.26964233 208.80142212 215.68954468 C206.5823627 208.14117788 206.70611246 200.74025791 206.76626587 192.94345093 C206.77077759 191.83034546 206.77528931 190.71723999 206.77993774 189.57040405 C206.79165394 186.84052992 206.80805888 184.11076919 206.82876587 181.38095093 C208.02888306 181.37160522 209.22900024 181.36225952 210.46548462 181.35263062 C214.94615904 181.31255973 219.42615916 181.24675409 223.90640259 181.1734314 C225.8402333 181.14532057 227.7741768 181.12405714 229.7081604 181.10995483 C232.49894542 181.08838772 235.28838846 181.04166837 238.07876587 180.99032593 C238.93430054 180.98909729 239.78983521 180.98786865 240.67129517 180.98660278 C247.24964689 180.82846001 252.88142219 179.29074882 257.66860962 174.56454468 C258.03083618 173.98833374 258.39306274 173.4121228 258.76626587 172.81845093 C259.14653931 172.23966187 259.52681274 171.6608728 259.91860962 171.06454468 C261.60789461 167.93972996 261.95859265 165.33949217 261.98266602 161.86003113 C261.99126648 160.93349731 261.99986694 160.0069635 262.00872803 159.05235291 C262.01298798 158.03777512 262.01724792 157.02319733 262.02163696 155.97787476 C262.02981445 154.90764069 262.03799194 153.83740662 262.04641724 152.73474121 C262.07127 149.18582723 262.08778766 145.63695327 262.10220337 142.08798218 C262.11018888 140.27016519 262.11018888 140.27016519 262.11833572 138.41562462 C262.14506765 132.00034594 262.16444187 125.58508672 262.17886353 119.16976929 C262.19550513 112.54640873 262.24027959 105.92354633 262.29123497 99.30037403 C262.32490665 94.20536229 262.33644098 89.11046876 262.34209061 84.01535606 C262.34880392 81.57414636 262.3640279 79.13294445 262.38798141 76.69184303 C262.41963023 73.27115026 262.41966927 69.85180076 262.41226196 66.43099976 C262.4286673 65.42654312 262.44507263 64.42208649 262.4619751 63.38719177 C262.4037511 56.80336865 261.06740203 52.48025061 256.82876587 47.38095093 C251.46532337 42.40061146 247.07754702 42.23003673 240.01792908 42.22032166 C239.1062946 42.21523384 238.19466012 42.21014602 237.25540036 42.20490402 C234.18781605 42.18915534 231.12025535 42.18064809 228.05264282 42.17221069 C225.85831044 42.16267422 223.66397957 42.15278315 221.46965027 42.14256287 C214.25213409 42.11115527 207.0346063 42.09090922 199.81704712 42.07235718 C198.58963924 42.06905986 197.36223136 42.06576253 196.09762931 42.06236529 C184.52474649 42.03158474 172.9518611 42.00487362 161.37894917 41.98794651 C158.69889123 41.98399711 156.01883339 41.9799941 153.33877563 41.97592163 C152.67267291 41.97491327 152.00657019 41.97390491 151.32028254 41.97286599 C140.53313125 41.95586404 129.74620955 41.91475943 118.95917032 41.86389864 C107.88040416 41.81209274 96.80173332 41.78348267 85.72284478 41.77574962 C79.50398742 41.77079075 73.28553817 41.75568644 67.06679726 41.71600533 C61.21523925 41.67915945 55.36432281 41.67072301 49.51267052 41.68401146 C47.36646331 41.68395748 45.22022782 41.67364808 43.0741272 41.65225983 C40.14015134 41.62458563 37.20851649 41.63408391 34.27452087 41.6526947 C33.42829755 41.63589977 32.58207422 41.61910484 31.71020776 41.60180098 C24.06775675 41.7226683 18.73705094 45.37412789 14.36012268 51.57539368 Z " fill="#FBF6FD" transform="translate(136.17123413085938,138.61904907226563)"/>
<path d="M0 0 C5.40392317 2.37730728 8.66603206 6.3741694 11.640625 11.38671875 C13.46574393 16.86207555 13.46779572 22.26383938 11.078125 27.57421875 C8.25201012 32.62085246 4.14802908 36.55091739 -1.359375 38.38671875 C-8.55834035 39.07608616 -14.79921443 39.33197019 -20.7734375 34.8828125 C-25.82917579 30.11348303 -27.47046733 25.30547499 -27.671875 18.57421875 C-27.58297639 12.52022343 -25.89512111 8.88293207 -21.60546875 4.66015625 C-15.0597065 -1.10667396 -8.67129311 -2.25396195 0 0 Z " fill="#FAF8FD" transform="translate(310.359375,230.61328125)"/>
<path d="M0 0 C5.48230292 3.86801105 9.82434071 8.90648655 11.01953125 15.6171875 C11.37177566 22.31910094 9.94747909 26.8831014 5.54296875 31.94140625 C0.77803486 36.71825248 -3.06313888 38.10693802 -9.76953125 38.25390625 C-15.22318242 38.19943027 -18.37085124 37.82327726 -22.45703125 33.94140625 C-26.9973634 29.28629042 -29.48549108 25.15727597 -29.83203125 18.62890625 C-29.66723897 12.79332064 -27.77639366 8.36619422 -23.73828125 4.14453125 C-17.23347485 -1.64364393 -8.30149103 -3.57663604 0 0 Z " fill="#FAF9FD" transform="translate(253.45703125,231.05859375)"/>
<path d="M0 0 C4.62975904 2.77979256 7.59857188 6.58517838 9.625 11.5625 C10.75011875 18.1487721 10.24281893 24.13612641 6.83203125 29.9453125 C4.15521085 33.53173206 0.72282594 35.88097832 -3.375 37.5625 C-9.87190851 38.39461636 -16.45642652 38.92233972 -22 35 C-27.60725213 29.80186069 -29.59566845 25.71541345 -29.9375 18.125 C-29.68194011 10.94459139 -27.86106358 6.8472897 -22.68359375 1.96875 C-16.12610841 -2.95963147 -7.46881394 -3.0905437 0 0 Z " fill="#FBF9FD" transform="translate(371.375,231.4375)"/>
<path d="M0 0 C4.62975904 2.77979256 7.59857188 6.58517838 9.625 11.5625 C10.75011875 18.1487721 10.24281893 24.13612641 6.83203125 29.9453125 C4.15521085 33.53173206 0.72282594 35.88097832 -3.375 37.5625 C-9.87190851 38.39461636 -16.45642652 38.92233972 -22 35 C-27.60725213 29.80186069 -29.59566845 25.71541345 -29.9375 18.125 C-29.68194011 10.94459139 -27.86106358 6.8472897 -22.68359375 1.96875 C-16.12610841 -2.95963147 -7.46881394 -3.0905437 0 0 Z " fill="#FBF9FD" transform="translate(195.375,231.4375)"/>
<path d="M0 0 C4.77655522 2.43510658 7.56489342 5.22344478 10 10 C10.61166263 14.28163844 10.34119499 16.35552057 8.3125 20.1875 C3.01122182 26.63500048 3.01122182 26.63500048 -1.109375 27.3828125 C-5.17994875 27.58770715 -7.65809409 27.16462137 -11.375 25.375 C-15.50277269 21.64034852 -16.74403319 18.58699425 -17.625 13.125 C-17.47188714 8.45055459 -14.90339779 5.86506555 -11.82421875 2.56640625 C-8.23256716 -0.51764576 -4.5410868 -0.38483786 0 0 Z " fill="#9260F1" transform="translate(365,236)"/>
<path d="M0 0 C4.77655522 2.43510658 7.56489342 5.22344478 10 10 C10.61166263 14.28163844 10.34119499 16.35552057 8.3125 20.1875 C3.01122182 26.63500048 3.01122182 26.63500048 -1.109375 27.3828125 C-5.17994875 27.58770715 -7.65809409 27.16462137 -11.375 25.375 C-15.50277269 21.64034852 -16.74403319 18.58699425 -17.625 13.125 C-17.47188714 8.45055459 -14.90339779 5.86506555 -11.82421875 2.56640625 C-8.23256716 -0.51764576 -4.5410868 -0.38483786 0 0 Z " fill="#9260F1" transform="translate(189,236)"/>
<path d="M0 0 C3.28133541 2.11463838 4.93976587 3.35514469 6.8125 6.8125 C7.53730586 11.24939569 7.85234968 15.65609042 5.859375 19.7890625 C3.36112761 22.99883604 0.73556702 24.87843642 -3.1875 25.8125 C-7.43200609 26.27553703 -9.62381522 26.10518248 -13.4375 24.125 C-16.98812851 21.13924421 -18.87573286 19.14498012 -19.50390625 14.4453125 C-19.69743494 10.23762432 -19.62583593 7.57552921 -17.5 3.875 C-11.861936 -1.15354356 -7.37860493 -2.74889203 0 0 Z " fill="#9260F1" transform="translate(250.1875,237.1875)"/>
<path d="M0 0 C3.31601886 2.35947496 4.79668418 3.5509767 6.25 7.3125 C6.78647806 12.94551965 6.41601282 16.45040888 3.25 21.3125 C0.00953856 24.24916818 -2.68514935 25.21204239 -7.0625 25.625 C-12.11964519 25.19642837 -15.00770185 23.22902797 -18.390625 19.5078125 C-20.91175649 15.43633003 -20.47046836 10.92216333 -19.75 6.3125 C-18.13154438 3.05632142 -15.80226615 1.08416184 -12.875 -1.0625 C-8.21730178 -2.43241124 -4.28521138 -2.23773195 0 0 Z " fill="#9160F1" transform="translate(309.75,237.6875)"/>
</svg>
